<svg width="40" height="40" viewBox="0 0 40 40" fill="none" xmlns="http://www.w3.org/2000/svg">
<path fill-rule="evenodd" clip-rule="evenodd" d="M20 13.3333C16.3181 13.3333 13.3333 16.3181 13.3333 20C13.3333 23.6818 16.3181 26.6667 20 26.6667C23.6818 26.6667 26.6667 23.6818 26.6667 20C26.6667 19.0795 27.4128 18.3333 28.3333 18.3333C29.2538 18.3333 30 19.0795 30 20C30 25.5228 25.5228 30 20 30C14.4771 30 10 25.5228 10 20C10 14.4771 14.4771 10 20 10C20.9205 10 21.6667 10.7462 21.6667 11.6667C21.6667 12.5871 20.9205 13.3333 20 13.3333Z" fill="#41B9FF"/>
<path fill-rule="evenodd" clip-rule="evenodd" d="M20.0003 5.00008C11.7161 5.00008 5.00033 11.7158 5.00033 20.0001C5.00033 28.2844 11.7161 35.0001 20.0003 35.0001C28.2847 35.0001 35.0003 28.2844 35.0003 20.0001C35.0003 18.9706 34.8968 17.9667 34.7003 16.9982C34.5172 16.0962 35.1 15.2165 36.002 15.0334C36.9042 14.8503 37.7838 15.4331 37.967 16.3352C38.2077 17.5207 38.3337 18.7466 38.3337 20.0001C38.3337 30.1252 30.1255 38.3334 20.0003 38.3334C9.87511 38.3334 1.66699 30.1252 1.66699 20.0001C1.66699 9.87486 9.87511 1.66675 20.0003 1.66675C21.2538 1.66675 22.4797 1.7928 23.6652 2.03345C24.5673 2.21656 25.1502 3.09628 24.967 3.99836C24.7838 4.90045 23.9042 5.48328 23.0022 5.30016C22.0337 5.10356 21.0298 5.00008 20.0003 5.00008Z" fill="#41B9FF"/>
<path d="M33.5698 3.46296C33.3071 2.4561 32.4935 1.83793 31.6206 1.6985C30.7793 1.56411 29.927 1.86281 29.3178 2.47188L27.4021 4.38751C25.2865 6.5032 25.1095 9.11038 25.8178 11.8251L18.8211 18.8217C18.1703 19.4726 18.1703 20.5279 18.8211 21.1787C19.472 21.8297 20.5273 21.8297 21.1781 21.1787L28.1748 14.1822C30.8895 14.8905 33.4968 14.7134 35.6125 12.5977L37.528 10.6821C38.1371 10.073 38.4358 9.22061 38.3015 8.37936C38.162 7.50646 37.5438 6.69278 36.537 6.43008L34.1838 5.81611L33.5698 3.46296Z" fill="#41B9FF"/>
</svg>
