<svg width="275" height="51" viewBox="0 0 275 51" fill="none" xmlns="http://www.w3.org/2000/svg">
<path d="M175.856 40.9378C174.454 40.9378 173.1 40.6264 171.792 40.0036C170.515 39.3497 169.363 38.4778 168.335 37.3879C167.339 36.2669 166.545 34.9902 165.953 33.5578C165.362 32.1253 165.066 30.6307 165.066 29.0737C165.066 27.579 165.362 26.131 165.953 24.7298C166.545 23.3285 167.355 22.0829 168.382 20.993C169.41 19.872 170.562 18.9846 171.839 18.3306C173.146 17.6767 174.485 17.3497 175.856 17.3497C177.35 17.3497 178.643 17.6767 179.732 18.3306C180.822 18.9534 181.725 19.8098 182.442 20.8996C183.158 21.9895 183.687 23.2351 184.03 24.6363C184.403 26.0376 184.606 27.4856 184.637 28.9803C184.668 30.5061 184.512 31.9852 184.17 33.4176C183.827 34.8189 183.298 36.0956 182.582 37.2478C181.865 38.3688 180.947 39.2718 179.826 39.9569C178.736 40.6108 177.413 40.9378 175.856 40.9378ZM176.977 32.5302C177.568 32.5302 178.113 32.3745 178.611 32.0631C179.11 31.7517 179.514 31.3469 179.826 30.8486C180.137 30.3193 180.293 29.7588 180.293 29.1671C180.293 28.5443 180.137 27.9838 179.826 27.4856C179.546 26.9874 179.156 26.5825 178.658 26.2712C178.16 25.9598 177.584 25.8041 176.93 25.8041C176.307 25.8041 175.731 25.9598 175.202 26.2712C174.703 26.5514 174.299 26.9562 173.987 27.4856C173.707 27.9838 173.567 28.5443 173.567 29.1671C173.567 29.7588 173.723 30.3193 174.034 30.8486C174.345 31.3469 174.766 31.7517 175.295 32.0631C175.824 32.3745 176.385 32.5302 176.977 32.5302ZM184.637 40.9845C183.391 40.9845 182.457 40.7976 181.834 40.424C181.212 40.0503 180.791 39.4586 180.573 38.649V10.8572C180.573 10.1721 180.604 9.50264 180.667 8.84872C180.76 8.19479 181.087 7.66543 181.647 7.26061C182.208 6.82466 183.189 6.60669 184.59 6.60669C186.023 6.60669 187.019 6.8091 187.579 7.21391C188.171 7.61872 188.529 8.14809 188.654 8.80201C188.778 9.4248 188.841 10.0943 188.841 10.8105V36.734C188.841 37.419 188.778 38.0885 188.654 38.7424C188.529 39.3964 188.171 39.9413 187.579 40.3773C187.019 40.7821 186.038 40.9845 184.637 40.9845Z" fill="#040321"/>
<path d="M143.514 40.9844C142.113 40.9844 141.116 40.782 140.525 40.3772C139.933 39.9412 139.575 39.3963 139.45 38.7424C139.357 38.0885 139.31 37.419 139.31 36.7339V21.3667C139.31 20.6816 139.372 20.0277 139.497 19.4049C139.622 18.7821 139.98 18.2839 140.571 17.9102C141.163 17.5054 142.159 17.303 143.561 17.303C144.837 17.303 145.756 17.4742 146.317 17.8168C146.908 18.1282 147.282 18.5174 147.438 18.9845C147.593 19.4516 147.655 19.8875 147.624 20.2923C147.624 20.666 147.656 20.8996 147.718 20.993L147.344 21.2732C147.313 20.8061 147.484 20.3391 147.858 19.872C148.263 19.4049 148.777 18.9845 149.399 18.6108C150.053 18.206 150.738 17.8946 151.454 17.6766C152.202 17.4275 152.902 17.303 153.556 17.303C155.113 17.303 156.484 17.5988 157.667 18.1904C158.85 18.7821 159.831 19.6229 160.609 20.7127C161.419 21.7715 162.026 23.017 162.431 24.4494C162.836 25.8819 163.038 27.4388 163.038 29.1203V36.7806C163.038 37.4657 162.976 38.1352 162.851 38.7891C162.727 39.443 162.369 39.9724 161.777 40.3772C161.217 40.782 160.22 40.9844 158.788 40.9844C157.355 40.9844 156.343 40.782 155.752 40.3772C155.16 39.9412 154.802 39.3963 154.677 38.7424C154.553 38.0885 154.491 37.419 154.491 36.7339V29.1203C154.491 28.4041 154.35 27.7969 154.07 27.2987C153.821 26.8005 153.447 26.4268 152.949 26.1777C152.482 25.8974 151.89 25.7573 151.174 25.7573C150.489 25.7573 149.882 25.8974 149.353 26.1777C148.854 26.4579 148.465 26.8472 148.185 27.3454C147.905 27.8436 147.764 28.4353 147.764 29.1203V36.7806C147.764 37.4657 147.702 38.1352 147.578 38.7891C147.453 39.443 147.095 39.9724 146.503 40.3772C145.943 40.782 144.946 40.9844 143.514 40.9844Z" fill="#040321"/>
<path d="M132.274 40.9377C130.873 40.9377 129.829 40.7042 129.144 40.2371C128.49 39.77 128.179 39.2406 128.21 38.649H128.864C128.708 38.8669 128.397 39.1628 127.93 39.5364C127.494 39.879 126.902 40.2059 126.155 40.5173C125.408 40.7976 124.489 40.9377 123.399 40.9377C121.998 40.9377 120.643 40.6263 119.336 40.0035C118.059 39.3496 116.907 38.4621 115.879 37.3411C114.883 36.2201 114.089 34.959 113.497 33.5577C112.905 32.1253 112.609 30.6306 112.609 29.0736C112.609 27.5478 112.905 26.0843 113.497 24.683C114.089 23.2817 114.898 22.0361 115.926 20.9463C116.953 19.8253 118.106 18.9534 119.382 18.3306C120.659 17.6766 121.998 17.3497 123.399 17.3497C124.458 17.3497 125.345 17.5054 126.062 17.8168C126.809 18.1282 127.401 18.4707 127.837 18.8444C128.304 19.218 128.615 19.5294 128.771 19.7786H128.257C128.226 19.0001 128.537 18.3929 129.191 17.9569C129.876 17.521 130.919 17.303 132.321 17.303C133.722 17.303 134.703 17.521 135.263 17.9569C135.855 18.3617 136.213 18.8911 136.338 19.545C136.462 20.1989 136.524 20.8684 136.524 21.5535V36.7339C136.524 37.419 136.462 38.0885 136.338 38.7424C136.213 39.3963 135.855 39.9257 135.263 40.3305C134.703 40.7353 133.706 40.9377 132.274 40.9377ZM124.567 32.4834C125.159 32.4834 125.688 32.3277 126.155 32.0163C126.653 31.7049 127.042 31.3001 127.323 30.8019C127.634 30.2725 127.79 29.712 127.79 29.1203C127.79 28.4976 127.634 27.937 127.323 27.4388C127.042 26.9406 126.653 26.5358 126.155 26.2244C125.657 25.913 125.096 25.7573 124.474 25.7573C123.851 25.7573 123.275 25.913 122.745 26.2244C122.247 26.5358 121.842 26.9562 121.531 27.4855C121.219 27.9838 121.064 28.5443 121.064 29.167C121.064 29.7587 121.219 30.3036 121.531 30.8019C121.873 31.3001 122.309 31.7049 122.839 32.0163C123.368 32.3277 123.944 32.4834 124.567 32.4834Z" fill="#040321"/>
<path d="M100.432 40.9378C98.9061 40.9378 97.5827 40.6108 96.4617 39.9569C95.3406 39.2718 94.422 38.3688 93.7058 37.2478C92.9896 36.0956 92.4603 34.8189 92.1177 33.4176C91.7752 31.9852 91.6195 30.5061 91.6506 28.9803C91.6818 27.4856 91.8686 26.0376 92.2112 24.6363C92.5848 23.2351 93.1298 21.9895 93.846 20.8996C94.5622 19.8098 95.4652 18.9534 96.5551 18.3306C97.645 17.6767 98.9372 17.3497 100.432 17.3497C101.802 17.3497 103.125 17.6767 104.402 18.3306C105.71 18.9846 106.878 19.872 107.905 20.993C108.933 22.0829 109.743 23.3285 110.334 24.7298C110.926 26.131 111.222 27.579 111.222 29.0737C111.222 30.6307 110.926 32.1253 110.334 33.5578C109.743 34.9902 108.933 36.2669 107.905 37.3879C106.909 38.4778 105.757 39.3497 104.449 40.0036C103.172 40.6264 101.833 40.9378 100.432 40.9378ZM99.3109 32.5302C99.9337 32.5302 100.494 32.3745 100.992 32.0631C101.522 31.7517 101.942 31.3469 102.254 30.8486C102.565 30.3193 102.721 29.7588 102.721 29.1671C102.721 28.5443 102.565 27.9838 102.254 27.4856C101.973 26.9562 101.569 26.5514 101.039 26.2712C100.541 25.9598 99.9804 25.8041 99.3576 25.8041C98.7348 25.8041 98.1588 25.9598 97.6294 26.2712C97.1312 26.5825 96.7263 26.9874 96.415 27.4856C96.1347 27.9838 95.9946 28.5443 95.9946 29.1671C95.9946 29.7588 96.1503 30.3193 96.4617 30.8486C96.7731 31.3469 97.1779 31.7517 97.6761 32.0631C98.1743 32.3745 98.7193 32.5302 99.3109 32.5302ZM91.6506 40.9845C90.2494 40.9845 89.2529 40.7821 88.6613 40.3773C88.0696 39.9413 87.7115 39.3964 87.587 38.7424C87.4935 38.0885 87.4468 37.419 87.4468 36.734V10.8105C87.4468 10.0943 87.5091 9.4248 87.6337 8.80201C87.7582 8.14809 88.1163 7.61872 88.708 7.21391C89.2996 6.8091 90.2961 6.60669 91.6973 6.60669C93.0986 6.60669 94.0795 6.82466 94.64 7.26061C95.2005 7.66543 95.5275 8.19479 95.6209 8.84872C95.7143 9.50264 95.7455 10.1721 95.7143 10.8572V38.649C95.4963 39.4586 95.076 40.0503 94.4532 40.424C93.8615 40.7976 92.9274 40.9845 91.6506 40.9845Z" fill="#040321"/>
<path d="M74.5012 41.545C72.1657 41.545 70.1884 41.1714 68.5691 40.424C66.9499 39.6456 65.642 38.6491 64.6456 37.4347C63.6491 36.1891 62.9174 34.8501 62.4503 33.4177C61.9832 31.9853 61.7496 30.5996 61.7496 29.2606C61.7496 26.8006 62.2946 24.6364 63.3844 22.7681C64.4743 20.8997 65.9846 19.4361 67.9152 18.3774C69.8459 17.3187 72.0567 16.7893 74.5479 16.7893C76.4785 16.7893 78.1289 17.1007 79.499 17.7235C80.8692 18.3463 81.9746 19.1403 82.8154 20.1056C83.6873 21.071 84.3256 22.0986 84.7304 23.1884C85.1352 24.2783 85.3377 25.2903 85.3377 26.2245C85.3377 27.9995 84.9017 29.354 84.0298 30.2882C83.1579 31.2224 82.0369 31.6895 80.6668 31.6895H70.7178C70.8423 32.1877 71.0914 32.6236 71.4651 32.9973C71.8699 33.3398 72.3681 33.6201 72.9598 33.8381C73.5514 34.0249 74.1898 34.1183 74.8748 34.1183C75.5599 34.1183 76.1671 34.0872 76.6965 34.0249C77.2259 33.9315 77.6774 33.8225 78.0511 33.6979C78.4559 33.5734 78.814 33.4488 79.1254 33.3243C79.4679 33.1997 79.7637 33.1063 80.0128 33.044C80.2931 32.9506 80.5578 32.9039 80.8069 32.9039C81.3674 32.9039 81.8812 33.0907 82.3483 33.4644C82.8154 33.8381 83.2357 34.3986 83.6094 35.1459C83.8274 35.5507 83.9831 35.94 84.0765 36.3136C84.1699 36.6562 84.2166 36.9831 84.2166 37.2945C84.2166 38.2287 83.8274 39.0072 83.0489 39.63C82.3016 40.2528 81.2117 40.7199 79.7793 41.0312C78.3469 41.3738 76.5875 41.545 74.5012 41.545ZM70.7178 27.2988H75.9492C76.3851 27.2988 76.6965 27.2054 76.8833 27.0186C77.1013 26.8317 77.2103 26.5515 77.2103 26.1778C77.2103 25.773 77.0857 25.4305 76.8366 25.1502C76.6186 24.87 76.3073 24.6676 75.9024 24.543C75.4976 24.3873 75.015 24.3094 74.4545 24.3094C73.7071 24.3094 73.0532 24.4651 72.4927 24.7765C71.9322 25.0568 71.4962 25.4305 71.1848 25.8976C70.9046 26.3335 70.7489 26.8006 70.7178 27.2988Z" fill="#040321"/>
<path d="M49.7914 40.4706C48.2656 40.4706 46.9422 40.1592 45.8212 39.5364C44.7001 38.9136 43.7815 38.0729 43.0653 37.0142C42.3491 35.9243 41.8198 34.6943 41.4772 33.3241C41.1347 31.954 40.979 30.506 41.0101 28.9802C41.0413 27.4855 41.2281 26.0375 41.5706 24.6363C41.9443 23.235 42.4893 21.9894 43.2055 20.8996C43.9217 19.8097 44.8247 18.9534 45.9146 18.3306C47.0044 17.6766 48.2967 17.3497 49.7914 17.3497C51.1615 17.3497 52.485 17.6766 53.7617 18.3306C55.0695 18.9845 56.2373 19.872 57.2648 20.993C58.2924 22.0829 59.1021 23.3284 59.6937 24.7297C60.2854 26.131 60.5812 27.5789 60.5812 29.0736C60.5812 30.6306 60.2854 32.1097 59.6937 33.511C59.1021 34.8811 58.2924 36.0955 57.2648 37.1543C56.2684 38.1819 55.1162 38.9915 53.8084 39.5831C52.5317 40.1748 51.1927 40.4706 49.7914 40.4706ZM41.1503 50.9334C39.7801 50.9334 38.7992 50.731 38.2076 50.3262C37.6159 49.9214 37.2579 49.4076 37.1333 48.7848C37.0399 48.162 36.9932 47.5081 36.9932 46.823V21.4601C36.9932 20.775 37.0399 20.1211 37.1333 19.4983C37.2579 18.8755 37.6004 18.3617 38.1609 17.9569C38.7525 17.521 39.7334 17.303 41.1036 17.303C42.1934 17.303 43.0965 17.4587 43.8127 17.7701C44.5289 18.0503 45.0427 18.5018 45.3541 19.1246V46.7763C45.4163 47.4614 45.3696 48.1153 45.2139 48.7381C45.0894 49.392 44.7313 49.9214 44.1396 50.3262C43.548 50.731 42.5515 50.9334 41.1503 50.9334ZM48.6704 32.5301C49.2932 32.5301 49.8537 32.3744 50.3519 32.063C50.8813 31.7516 51.3017 31.3468 51.6131 30.8486C51.9245 30.3192 52.0802 29.7587 52.0802 29.167C52.0802 28.5443 51.9245 27.9838 51.6131 27.4855C51.3328 26.9562 50.928 26.5513 50.3986 26.2711C49.9004 25.9597 49.3399 25.804 48.7171 25.804C48.0943 25.804 47.5182 25.9597 46.9889 26.2711C46.4907 26.5825 46.0858 26.9873 45.7744 27.4855C45.4942 27.9838 45.3541 28.5443 45.3541 29.167C45.3541 29.7587 45.5098 30.3192 45.8212 30.8486C46.1325 31.3468 46.5374 31.7516 47.0356 32.063C47.5338 32.3744 48.0788 32.5301 48.6704 32.5301Z" fill="#040321"/>
<path d="M29.8945 41.0312C28.4932 41.0312 27.4968 40.8288 26.9051 40.424C26.3135 39.988 25.9554 39.4431 25.8308 38.7892C25.7374 38.1352 25.6907 37.4657 25.6907 36.7807V21.5536C25.6907 20.8685 25.753 20.2146 25.8775 19.5918C26.0021 18.9379 26.3602 18.4085 26.9518 18.0037C27.5435 17.5677 28.5399 17.3497 29.9412 17.3497C31.3425 17.3497 32.3233 17.5677 32.8839 18.0037C33.4755 18.4085 33.8336 18.9379 33.9582 19.5918C34.0827 20.2457 34.145 20.9308 34.145 21.647V36.8274C34.145 37.5124 34.0827 38.1819 33.9582 38.8359C33.8336 39.4898 33.4755 40.0192 32.8839 40.424C32.3233 40.8288 31.3269 41.0312 29.8945 41.0312ZM29.8945 15.061C28.4932 15.061 27.4968 14.8586 26.9051 14.4538C26.3135 14.0178 25.9554 13.4729 25.8308 12.819C25.7374 12.1651 25.6907 11.4956 25.6907 10.8105C25.6907 10.0943 25.753 9.4248 25.8775 8.80201C26.0021 8.14809 26.3602 7.61872 26.9518 7.21391C27.5435 6.8091 28.5399 6.60669 29.9412 6.60669C31.3425 6.60669 32.3233 6.82466 32.8839 7.26061C33.4755 7.66543 33.8336 8.19479 33.9582 8.84872C34.0827 9.50264 34.145 10.1721 34.145 10.8572C34.145 11.5423 34.0827 12.2118 33.9582 12.8657C33.8336 13.5196 33.4755 14.049 32.8839 14.4538C32.3233 14.8586 31.3269 15.061 29.8945 15.061Z" fill="#040321"/>
<path d="M12.7983 40.4706C11.2724 40.4706 9.94901 40.1592 8.82799 39.5364C7.70698 38.9136 6.78837 38.0729 6.07216 37.0142C5.35596 35.9243 4.82659 34.6943 4.48406 33.3241C4.14153 31.954 3.98583 30.506 4.01697 28.9802C4.04811 27.4855 4.23494 26.0375 4.57748 24.6363C4.95115 23.235 5.49609 21.9894 6.21229 20.8996C6.92849 19.8097 7.83153 18.9534 8.92141 18.3306C10.0113 17.6766 11.3036 17.3497 12.7983 17.3497C14.1684 17.3497 15.4918 17.6766 16.7685 18.3306C18.0764 18.9845 19.2441 19.872 20.2717 20.993C21.2993 22.0829 22.1089 23.3284 22.7005 24.7297C23.2922 26.131 23.588 27.5789 23.588 29.0736C23.588 30.6306 23.2922 32.1097 22.7005 33.511C22.1089 34.8811 21.2993 36.0955 20.2717 37.1543C19.2752 38.1819 18.1231 38.9915 16.8152 39.5831C15.5385 40.1748 14.1995 40.4706 12.7983 40.4706ZM4.1571 50.9334C2.78697 50.9334 1.80608 50.731 1.21443 50.3262C0.622786 49.9214 0.264684 49.4076 0.140127 48.7848C0.046709 48.162 0 47.5081 0 46.823V21.4601C0 20.775 0.046709 20.1211 0.140127 19.4983C0.264684 18.8755 0.607216 18.3617 1.16772 17.9569C1.75937 17.521 2.74026 17.303 4.11039 17.303C5.20026 17.303 6.1033 17.4587 6.81951 17.7701C7.53571 18.0503 8.04951 18.5018 8.3609 19.1246V46.7763C8.42318 47.4614 8.37647 48.1153 8.22077 48.7381C8.09622 49.392 7.73812 49.9214 7.14647 50.3262C6.55482 50.731 5.55836 50.9334 4.1571 50.9334ZM11.6772 32.5301C12.3 32.5301 12.8605 32.3744 13.3588 32.063C13.8881 31.7516 14.3085 31.3468 14.6199 30.8486C14.9313 30.3192 15.087 29.7587 15.087 29.167C15.087 28.5443 14.9313 27.9838 14.6199 27.4855C14.3396 26.9562 13.9348 26.5513 13.4055 26.2711C12.9072 25.9597 12.3467 25.804 11.7239 25.804C11.1012 25.804 10.5251 25.9597 9.99571 26.2711C9.49749 26.5825 9.09267 26.9873 8.78128 27.4855C8.50103 27.9838 8.3609 28.5443 8.3609 29.167C8.3609 29.7587 8.5166 30.3192 8.82799 30.8486C9.13938 31.3468 9.54419 31.7516 10.0424 32.063C10.5407 32.3744 11.0856 32.5301 11.6772 32.5301Z" fill="#040321"/>
<path d="M247.38 21.0112C249.299 20.238 250.588 20.2237 251.246 20.9683C251.59 21.3692 251.762 21.9276 251.762 22.6435V22.8583C252.821 21.6269 254.668 20.596 257.303 19.7655C260.081 18.9064 262.372 18.663 264.176 19.0353C266.524 19.5221 267.841 21.0542 268.128 23.6315C268.357 25.8079 267.856 28.5714 266.624 31.9219C266.223 32.781 265.908 33.4826 265.679 34.0267C265.479 34.5422 265.293 35.0147 265.121 35.4442C264.749 36.2461 264.161 37.2054 263.36 38.3222C262.901 39.1813 262.186 39.84 261.212 40.2982C260.267 40.7564 259.322 41.0141 258.377 41.0714C257.46 41.1573 256.702 41.0141 256.1 40.6418C255.499 40.2982 255.327 39.7398 255.585 38.9666C256.243 37.1911 256.787 35.5731 257.217 34.1126C257.647 32.6521 258.09 31.4064 258.549 30.3755C258.978 28.915 259.035 27.9986 258.72 27.6264C258.463 27.34 258.019 27.3829 257.389 27.7552C256.845 28.0989 256.458 28.4998 256.229 28.958C255.714 29.3302 254.74 30.8194 253.308 33.4253C252.907 34.1412 252.506 34.8572 252.105 35.5731C251.733 36.2604 251.375 36.9047 251.031 37.5061C250.716 38.1075 250.43 38.6086 250.172 39.0095C249.943 39.4104 249.728 39.6682 249.528 39.7827C249.356 39.9259 249.199 40.0118 249.056 40.0405C248.941 40.0977 248.841 40.155 248.755 40.2123C248.669 40.2695 248.597 40.4557 248.54 40.7707C248.426 41.4293 247.738 41.9162 246.478 42.2312C244.445 42.7466 242.612 42.6607 240.98 41.9734C240.436 41.7443 240.006 41.4293 239.691 41.0284C239.033 39.7111 240.164 35.2295 243.085 27.5834C244.116 24.8915 244.789 23.2879 245.104 22.7724C245.82 21.6842 246.278 21.0685 246.478 20.9253C246.707 20.7821 247.008 20.8108 247.38 21.0112Z" fill="#41B9FF"/>
<path d="M219.741 20.7535C220.543 19.9803 221.43 19.5364 222.404 19.4219C223.406 19.2787 224.28 19.3789 225.024 19.7226C225.798 20.0662 226.356 20.6246 226.7 21.3978C227.072 22.1424 227.029 23.0015 226.571 23.9751C225.597 25.407 224.824 26.9534 224.251 28.6143C223.678 30.2753 223.149 31.9505 222.662 33.6401C225.296 31.9792 227.501 29.5021 229.277 26.2088C229.792 25.2352 230.351 24.2472 230.952 23.2449L231.596 22.0422L232.885 19.9803C233.057 19.4362 233.358 19.0926 233.787 18.9494C234.217 18.7775 234.675 18.6916 235.162 18.6916C235.677 18.6916 236.193 18.706 236.708 18.7346C237.224 18.7346 237.696 18.5914 238.126 18.305C238.555 18.0187 239.056 17.9184 239.629 18.0043C240.231 18.0616 240.76 18.2478 241.218 18.5628C241.705 18.8778 242.063 19.2644 242.292 19.7226C242.55 20.1521 242.579 20.5817 242.378 21.0112C241.176 23.5885 239.529 28.3852 237.438 35.4013C236.952 36.9763 236.493 38.2936 236.064 39.3532C235.348 40.2409 234.446 40.8423 233.358 41.1573C232.269 41.4723 231.239 41.5582 230.265 41.415C229.32 41.3005 228.561 40.9711 227.988 40.427C227.416 39.9116 227.287 39.2529 227.602 38.4511C226.8 39.1098 225.969 39.7111 225.11 40.2552C224.251 40.7993 223.206 41.1573 221.974 41.3291C220.772 41.5009 219.612 41.4437 218.495 41.1573C217.378 40.8996 216.419 40.3841 215.617 39.6109C214.844 38.8377 214.429 37.8068 214.371 36.5181C214.2 31.9935 215.989 26.7386 219.741 20.7535Z" fill="#41B9FF"/>
<path d="M210.267 19.9372C211.355 19.5649 213.016 19.3072 215.25 19.164C215.765 19.4503 215.966 20.0374 215.851 20.9251C215.765 21.8129 215.436 22.4859 214.863 22.9441C214.176 23.975 213.446 24.6766 212.673 25.0489C212.243 25.2493 211.713 25.4355 211.083 25.6073C210.482 25.7505 209.737 25.9509 208.85 26.2087C208.277 27.8123 207.633 29.9887 206.917 32.7379C206.229 35.487 205.743 37.3198 205.456 38.2362C204.798 40.3553 204.325 41.4578 204.039 41.5437C203.38 42.5746 202.65 43.219 201.848 43.4767C201.075 43.7344 200.359 43.7344 199.7 43.4767C199.042 43.2476 198.526 42.8181 198.154 42.188C197.81 41.5867 197.739 40.9423 197.939 40.2551C197.853 39.5391 197.982 37.5346 198.326 34.2413C198.669 30.9481 198.841 29.058 198.841 28.5712C198.727 28.4567 198.583 28.3851 198.411 28.3564C198.24 28.3278 198.125 28.2562 198.068 28.1416C197.81 28.0557 197.61 27.8982 197.466 27.6691C197.209 27.2682 196.937 26.9819 196.65 26.81C196.135 26.8673 195.72 26.7241 195.405 26.3805C195.061 26.0082 194.889 25.5786 194.889 25.0918C194.889 24.605 195.061 24.1038 195.405 23.5884C195.748 23.0729 196.335 22.672 197.166 22.3856L201.547 21.0111C201.891 18.6915 202.979 16.0569 204.812 13.1073C205.241 12.3913 205.7 11.6325 206.186 10.8306C206.702 10.0002 207.403 9.24129 208.291 8.554C209.179 7.83808 210.095 7.29398 211.04 6.9217C212.014 6.52078 212.988 6.27737 213.961 6.19146C214.964 6.10555 215.88 6.11987 216.71 6.23441C218.457 6.46351 219.617 7.05056 220.19 7.99558C220.877 9.19833 221.178 10.2865 221.092 11.2602C221.035 12.2052 220.648 12.9211 219.932 13.408C218.787 14.1525 217.813 14.2671 217.011 13.7516C216.696 13.5798 216.467 13.2934 216.324 12.8925C216.181 12.4916 215.909 12.3484 215.508 12.4629C215.107 12.5775 214.649 12.8495 214.133 13.2791C213.618 13.68 213.088 14.1955 212.544 14.8255C212.028 15.4555 211.57 16.0998 211.169 16.7585C210.167 18.2762 209.866 19.3358 210.267 19.9372Z" fill="#41B9FF"/>
<path d="M194.445 41.2432C194.101 41.9304 193.585 42.5318 192.898 43.0473C192.239 43.5914 191.566 43.9637 190.879 44.1641C190.221 44.3932 189.777 44.5078 189.548 44.5078C189.318 44.5078 188.731 44.4362 187.786 44.293H187.743C187.715 44.293 187.672 44.2644 187.615 44.2071C186.125 43.5198 185.381 42.5891 185.381 41.415C185.381 40.3841 185.911 39.3531 186.97 38.3222C188.402 36.9476 189.949 36.3176 191.609 36.4322C191.81 36.4608 192.282 36.5753 193.027 36.7758C193.113 36.8617 193.17 36.9047 193.199 36.9047C194.831 38.1647 195.246 39.6109 194.445 41.2432Z" fill="#41B9FF"/>
<path d="M256.101 13.7203C259.168 12.8351 262.377 12.398 265.416 13.025L265.422 13.0269L265.842 13.1207C267.94 13.63 269.986 14.6965 271.578 16.5484C273.243 18.4847 273.985 20.7836 274.226 22.9537L274.23 22.9889C274.601 26.5088 273.758 30.2986 272.384 34.0387L272.295 34.2818L272.185 34.5172C271.811 35.3201 271.536 35.9314 271.349 36.3717C271.161 36.8558 270.985 37.3069 270.818 37.7232L270.757 37.8775L270.686 38.0279C270.134 39.2186 269.383 40.4268 268.548 41.6129C267.415 43.5298 265.77 44.919 263.889 45.818L263.89 45.8199C263.876 45.8265 263.861 45.8319 263.848 45.8385C263.84 45.8421 263.833 45.8466 263.825 45.8502L263.824 45.8492C262.265 46.5961 260.576 47.0801 258.786 47.1939C257.031 47.3337 254.982 47.098 253.056 45.9683V45.9693C253.029 45.9539 253.002 45.9373 252.975 45.9215C252.941 45.9006 252.905 45.8814 252.87 45.86V45.858C252.779 45.8024 252.687 45.7449 252.597 45.6842C252.235 46.0557 251.857 46.3738 251.485 46.6373C250.285 47.4876 248.994 47.9248 247.985 48.1783L247.986 48.1793C247.983 48.1802 247.979 48.1804 247.975 48.1812C247.972 48.182 247.97 48.1834 247.967 48.1842L247.966 48.1832C245.084 48.9103 242.073 48.9233 239.178 47.857L238.599 47.6295C237.332 47.0962 236.085 46.2718 235.066 45.066L234.866 44.8199L234.481 44.3297L234.203 43.773C233.75 42.8672 233.534 41.9484 233.438 41.1324C234.49 40.8113 235.366 40.2188 236.064 39.3531C236.494 38.2936 236.952 36.9759 237.438 35.401C239.529 28.3851 241.176 23.5886 242.379 21.0113C242.579 20.5818 242.551 20.1518 242.293 19.7223C242.064 19.2642 241.705 18.878 241.219 18.5631C241.064 18.4569 240.901 18.3665 240.73 18.2896C240.844 18.1282 240.954 17.9743 241.061 17.8307C241.225 17.6105 241.425 17.3533 241.645 17.0992C241.788 16.9346 242.243 16.4092 242.911 15.9322L243.065 15.8219L243.225 15.7213C244.521 14.9117 245.801 14.6654 246.929 14.6959C247.796 14.4612 248.738 14.2956 249.718 14.2848L250.073 14.2877C250.951 14.313 251.929 14.4732 252.902 14.8521C253.746 14.4919 254.605 14.1815 255.458 13.9127L255.474 13.9078L255.49 13.9029L256.101 13.7203ZM264.176 19.0357C262.372 18.6635 260.08 18.9061 257.303 19.7652C254.668 20.5957 252.821 21.6267 251.762 22.858V22.6432C251.762 21.9274 251.59 21.3692 251.246 20.9683C250.587 20.224 249.299 20.2383 247.381 21.0113L247.244 20.9439C246.934 20.8062 246.679 20.8002 246.478 20.9254C246.278 21.0686 245.819 21.6839 245.103 22.7721C244.788 23.2875 244.116 24.8917 243.085 27.5836C240.164 35.2296 239.033 39.7116 239.691 41.0289C240.006 41.4297 240.436 41.7442 240.98 41.9732C242.613 42.6604 244.445 42.7465 246.478 42.231C247.66 41.9357 248.337 41.4895 248.512 40.8922L248.54 40.7711C248.597 40.4563 248.669 40.2699 248.755 40.2125C248.798 40.1839 248.844 40.1552 248.894 40.1266L249.056 40.0406C249.199 40.012 249.356 39.926 249.528 39.7828C249.729 39.6682 249.944 39.4102 250.173 39.0094C250.43 38.6086 250.716 38.1075 251.031 37.5064C251.375 36.9051 251.733 36.2601 252.105 35.5728C252.506 34.857 252.908 34.1412 253.308 33.4254C254.651 30.9824 255.59 29.5205 256.127 29.0406L256.229 28.9576C256.458 28.4997 256.845 28.0989 257.389 27.7555C258.019 27.3832 258.463 27.3402 258.721 27.6266C259.035 27.9989 258.978 28.9153 258.549 30.3756C258.091 31.4065 257.646 32.6524 257.217 34.1129C256.787 35.5732 256.243 37.1911 255.585 38.9664C255.327 39.7396 255.499 40.2985 256.1 40.6422C256.702 41.0143 257.461 41.1577 258.377 41.0719C259.322 41.0146 260.267 40.7566 261.212 40.2984C262.185 39.8402 262.901 39.181 263.359 38.3219C264.061 37.3447 264.599 36.4886 264.972 35.7525L265.121 35.4439C265.293 35.0145 265.479 34.5422 265.68 34.0269C265.909 33.4828 266.223 32.7806 266.624 31.9215C267.855 28.5711 268.357 25.8078 268.128 23.6314C267.841 21.0542 266.524 19.5226 264.176 19.0357Z" fill="white"/>
<path d="M235.864 12.5639C237.321 11.9008 238.858 11.7297 240.293 11.9038C241.76 12.0556 243.223 12.5326 244.552 13.4106C245.797 14.2166 246.93 15.3473 247.71 16.8422C248.334 17.9847 248.666 19.2703 248.641 20.5893C248.257 20.6873 247.836 20.8275 247.381 21.0112C247.009 20.8107 246.707 20.7821 246.478 20.9252C246.278 21.0684 245.819 21.6838 245.103 22.7719C244.788 23.2874 244.116 24.8916 243.085 27.5834C240.322 34.8161 239.161 39.2169 239.601 40.7866L236.064 39.353C236.494 38.2934 236.952 36.9757 237.438 35.4008C239.398 28.8232 240.968 24.1962 242.147 21.52L242.379 21.0112C242.579 20.5817 242.551 20.1516 242.293 19.7221C242.064 19.264 241.705 18.8779 241.219 18.5629C240.76 18.2479 240.23 18.0616 239.629 18.0043C239.056 17.9185 238.555 18.0188 238.126 18.3051C237.696 18.5915 237.223 18.7348 236.708 18.7348L235.935 18.7026C235.678 18.6954 235.42 18.6918 235.162 18.6918C234.675 18.6918 234.217 18.7778 233.787 18.9497L233.633 19.0122C233.285 19.1812 233.036 19.5038 232.886 19.9799L231.597 22.0424L230.952 23.2446C230.351 24.2468 229.793 25.2349 229.277 26.2084C227.502 29.5016 225.297 31.9791 222.662 33.6401C223.149 31.9507 223.678 30.2755 224.251 28.6147C224.824 26.9537 225.598 25.4069 226.571 23.975C227.029 23.0016 227.072 22.1423 226.7 21.3979C226.356 20.6247 225.797 20.0658 225.024 19.7221C224.28 19.3786 223.406 19.2782 222.404 19.4213L222.223 19.4467C221.32 19.5927 220.493 20.0285 219.741 20.7534C215.99 26.7385 214.199 31.9934 214.371 36.518C214.428 37.8067 214.844 38.8376 215.617 39.6108C216.419 40.384 217.378 40.8999 218.495 41.1577C219.612 41.444 220.772 41.5004 221.974 41.3286C223.206 41.1567 224.251 40.7994 225.11 40.2553C225.969 39.7112 226.8 39.1093 227.601 38.4506C227.286 39.2525 227.415 39.9117 227.988 40.4272C228.561 40.9712 229.32 41.2999 230.265 41.4145C231.116 41.5398 232.012 41.4896 232.952 41.2641L233.357 41.1577C234.378 40.8623 235.235 40.3148 235.928 39.5161L236.064 39.353L239.601 40.7866C239.627 40.8763 239.656 40.9575 239.691 41.0288C240.006 41.4295 240.436 41.744 240.98 41.9731C241.164 42.0504 241.35 42.119 241.539 42.1811L241.41 42.4995L240.841 43.2055C239.341 45.0655 237.37 46.3838 235.064 47.0512C233.307 47.56 231.437 47.7619 229.526 47.5053V47.5073C228.416 47.3726 227.275 47.0722 226.185 46.5473C225.093 46.9712 223.966 47.2446 222.842 47.4028L222.843 47.4038C222.84 47.4041 222.837 47.4034 222.835 47.4038C222.831 47.4043 222.826 47.4061 222.822 47.4067L222.821 47.4057C220.871 47.6817 218.903 47.5965 216.971 47.101V47.1C216.052 46.877 215.172 46.5575 214.339 46.1401L212.304 47.4243L212.915 45.2993C212.368 44.9233 211.847 44.4998 211.357 44.0278L211.317 43.9897L211.278 43.9496C209.358 42.0299 208.468 39.6395 208.271 37.2651L208.241 36.7905L208.24 36.7709L208.239 36.7504C208.103 33.1636 208.855 29.5009 210.285 25.808C210.574 25.7316 210.84 25.6647 211.083 25.6069C211.713 25.4351 212.243 25.2497 212.673 25.0493C213.446 24.677 214.176 23.9747 214.863 22.9438C215.436 22.4856 215.766 21.813 215.851 20.9252C215.966 20.0376 215.765 19.4509 215.25 19.1645C214.597 19.2063 213.994 19.2584 213.439 19.3198C213.792 18.7113 214.16 18.103 214.541 17.4946L214.94 16.8579L215.481 16.3364C217.078 14.7968 219.118 13.6683 221.536 13.3481V13.3471C223.409 13.0795 225.494 13.2044 227.516 14.1157L227.516 14.1147C227.531 14.1212 227.546 14.1286 227.56 14.1352C227.572 14.1405 227.584 14.1454 227.596 14.1508L227.595 14.1518C228.075 14.3703 228.53 14.624 228.959 14.9106C229.677 14.1867 230.593 13.5655 231.74 13.1645C232.86 12.7494 234.015 12.5551 235.162 12.5551C235.396 12.5551 235.63 12.5591 235.864 12.5639Z" fill="white"/>
<path d="M213.437 0.0777168C214.793 -0.0384539 216.16 -0.0322451 217.508 0.149982C220.005 0.477485 223.443 1.52494 225.437 4.81502L225.478 4.8824L225.517 4.95076C226.554 6.76394 227.397 9.05733 227.215 11.6305L227.218 11.6314C227.216 11.6597 227.212 11.6881 227.21 11.7164C227.208 11.744 227.207 11.7718 227.205 11.7994L227.203 11.7984C227.002 14.3769 225.78 16.8525 223.383 18.483L223.33 18.5181L223.276 18.5533C222.877 18.8125 222.423 19.068 221.926 19.2994C221.935 19.3669 221.944 19.434 221.951 19.5006C221.153 19.6844 220.417 20.102 219.741 20.7535C217.506 24.3193 215.967 27.626 215.125 30.6734C214.655 30.8853 214.174 31.0662 213.693 31.2252C213.433 32.1216 213.154 33.1395 212.855 34.2847C212.184 36.9693 211.661 38.9487 211.315 40.0562L211.316 40.0572C210.967 41.1801 210.61 42.2249 210.248 43.0699C210.076 43.4717 209.816 44.0331 209.46 44.5914C209.309 44.8273 209.066 45.1747 208.726 45.5513C207.639 47.0381 206.052 48.5505 203.788 49.2965L203.789 49.2984C203.774 49.3034 203.758 49.3072 203.743 49.3121C203.737 49.314 203.731 49.317 203.725 49.3189L203.724 49.318C201.887 49.9172 199.784 50.0308 197.684 49.2711V49.273C197.631 49.2545 197.579 49.2329 197.526 49.2135C197.506 49.2056 197.484 49.199 197.464 49.191V49.19C195.597 48.487 194.108 47.235 193.078 45.6451L192.871 45.3101L192.848 45.2721L192.826 45.233C192.526 44.7077 192.286 44.1654 192.106 43.6129C192.372 43.451 192.637 43.2634 192.898 43.0474C193.586 42.532 194.101 41.93 194.444 41.2428C195.246 39.6106 194.831 38.1648 193.199 36.9049C193.17 36.9049 193.113 36.8618 193.027 36.776C192.56 36.6503 192.2 36.5597 191.947 36.5015C192.018 35.651 192.11 34.683 192.223 33.6051L192.406 31.8043C191.865 31.462 191.351 31.0395 190.881 30.5269V30.526C189.631 29.1643 188.854 27.4171 188.762 25.483L188.753 25.0924L188.761 24.7222C188.842 22.8952 189.518 21.3568 190.299 20.1851L190.557 19.818C191.883 18.0418 193.68 17.0966 195.165 16.5846L195.247 16.5562L195.329 16.5308L196.482 16.1685C197.227 14.0743 198.285 11.9947 199.55 9.94979C199.985 9.22373 200.45 8.45586 200.941 7.64608L200.957 7.62069L200.973 7.59432C201.912 6.08026 203.118 4.80943 204.474 3.74959C205.754 2.72269 207.163 1.86679 208.704 1.24862V1.24764C208.718 1.24186 208.732 1.2358 208.746 1.23006C208.761 1.22412 208.776 1.21838 208.791 1.21248V1.21346C210.268 0.614555 211.816 0.220407 213.422 0.0786933H213.43L213.437 0.0777168ZM216.711 6.23494C215.88 6.12041 214.964 6.10611 213.962 6.19197C212.988 6.27789 212.014 6.52055 211.04 6.92147C210.095 7.29374 209.179 7.83842 208.291 8.55428C207.403 9.24148 206.702 10.0003 206.186 10.8306C205.7 11.6324 205.241 12.3911 204.811 13.107C202.979 16.0566 201.89 18.6917 201.547 21.0113L197.166 22.3853C196.335 22.6717 195.748 23.073 195.404 23.5885C195.061 24.1039 194.89 24.6056 194.89 25.0924C194.89 25.5789 195.061 26.0083 195.404 26.3805C195.719 26.7241 196.135 26.8674 196.65 26.8101C196.937 26.982 197.209 27.2686 197.467 27.6695C197.61 27.8985 197.811 28.0563 198.068 28.1422C198.126 28.2564 198.24 28.3284 198.411 28.357C198.583 28.3857 198.726 28.4573 198.841 28.5719L198.833 28.8199C198.795 29.5529 198.627 31.3604 198.326 34.2418L198.207 35.4156C197.953 38.0156 197.864 39.629 197.939 40.2555L197.877 40.5113C197.761 41.1032 197.854 41.6619 198.154 42.1881C198.526 42.8181 199.041 43.248 199.7 43.4771C200.276 43.7026 200.896 43.7302 201.56 43.5611L201.848 43.4771C202.649 43.2194 203.38 42.5745 204.039 41.5435C204.325 41.4568 204.798 40.3541 205.456 38.2359C205.671 37.5486 205.998 36.3462 206.438 34.6285L206.917 32.7379C207.633 29.9888 208.277 27.8122 208.849 26.2086C209.737 25.9509 210.482 25.7502 211.083 25.607C211.713 25.4352 212.243 25.2498 212.673 25.0494C213.446 24.6771 214.176 23.9749 214.863 22.9439C215.364 22.5431 215.679 21.9782 215.807 21.2486L215.851 20.9254C215.966 20.0377 215.765 19.451 215.25 19.1646C213.017 19.3078 211.356 19.5649 210.267 19.9371C209.867 19.3357 210.167 18.2761 211.169 16.7584C211.57 16.0998 212.028 15.4558 212.544 14.8258C213.088 14.1958 213.617 13.6798 214.133 13.2789C214.648 12.8494 215.107 12.578 215.508 12.4635C215.909 12.3489 216.181 12.4922 216.324 12.8931C216.467 13.2938 216.697 13.5798 217.012 13.7515C217.763 14.2347 218.666 14.1648 219.72 13.5406L219.932 13.4078C220.648 12.921 221.034 12.2052 221.092 11.2603C221.178 10.2867 220.878 9.19838 220.19 7.99569C219.653 7.10973 218.6 6.53854 217.031 6.28182L216.711 6.23494Z" fill="white"/>
<path d="M191.684 30.2915L192.032 30.3101L192.256 30.3257L192.477 30.3569C193.022 30.4348 193.725 30.6143 194.305 30.7681H195.292L195.813 31.1704L196.206 31.2769L197.084 32.1548C197.533 32.5113 197.984 32.9191 198.413 33.3814C198.385 33.6565 198.357 33.9436 198.326 34.2417C197.982 37.5348 197.853 39.5395 197.939 40.2554C197.739 40.9426 197.811 41.5866 198.154 42.188C198.526 42.818 199.041 43.248 199.7 43.4771C199.836 43.5301 199.975 43.5689 200.115 43.6001C200.062 43.7179 200.008 43.8343 199.952 43.9487L199.943 43.9683L199.933 43.9878C199.12 45.6146 197.951 46.9234 196.601 47.9399C195.503 48.8123 194.223 49.5533 192.753 50.0064C192.378 50.1342 191.981 50.2618 191.586 50.3638C191.257 50.4486 190.47 50.644 189.548 50.644C188.829 50.644 187.849 50.5063 187.106 50.395C185.804 50.2599 184.865 49.744 184.446 49.481C182.023 48.1953 179.426 45.7587 179.254 41.8315L179.244 41.4146L179.25 41.1079C179.353 37.9633 181.019 35.5515 182.691 33.9243L182.721 33.895C185.064 31.6455 188.115 30.1497 191.684 30.2915ZM191.609 36.4321C189.949 36.3177 188.402 36.9475 186.971 38.3218C185.911 39.3526 185.381 40.3838 185.381 41.4146C185.381 42.5886 186.125 43.5202 187.614 44.2075C187.657 44.2506 187.693 44.2769 187.72 44.2876L187.743 44.2935H187.786C188.495 44.4008 189.002 44.4678 189.308 44.4946L189.548 44.5073C189.72 44.5073 190.012 44.4429 190.426 44.314L190.879 44.1646C191.48 43.9892 192.071 43.682 192.65 43.2437L192.898 43.0474C193.586 42.5319 194.101 41.9299 194.444 41.2427C195.246 39.6106 194.831 38.1647 193.199 36.9048C193.17 36.9048 193.113 36.8617 193.027 36.7759C192.283 36.5754 191.81 36.4608 191.609 36.4321Z" fill="white"/>
</svg>
