<svg width="131" height="70" viewBox="0 0 131 70" fill="none" xmlns="http://www.w3.org/2000/svg">
<path d="M94.0587 28.6467C96.7219 27.5735 98.5106 27.5536 99.4249 28.5871C99.9019 29.1436 100.14 29.9187 100.14 30.9125V31.2106C101.611 29.5014 104.175 28.0704 107.832 26.9176C111.688 25.7251 114.868 25.3873 117.372 25.904C120.631 26.5798 122.46 28.7064 122.857 32.2838C123.175 35.3048 122.48 39.1407 120.771 43.7914C120.214 44.9839 119.777 45.9578 119.459 46.713C119.181 47.4285 118.922 48.0844 118.684 48.6806C118.167 49.7936 117.352 51.1252 116.239 52.6755C115.603 53.868 114.609 54.7822 113.258 55.4182C111.946 56.0542 110.634 56.4119 109.323 56.4914C108.051 56.6107 106.997 56.4119 106.162 55.8952C105.328 55.4182 105.089 54.6431 105.447 53.5698C106.361 51.1053 107.116 48.8595 107.713 46.8323C108.309 44.805 108.925 43.0759 109.561 41.6449C110.157 39.6177 110.237 38.3457 109.8 37.8289C109.442 37.4314 108.826 37.4911 107.951 38.0078C107.196 38.4848 106.659 39.0413 106.341 39.6773C105.626 40.194 104.274 42.261 102.287 45.8783C101.73 46.872 101.174 47.8657 100.617 48.8595C100.101 49.8135 99.6038 50.7079 99.1268 51.5426C98.6895 52.3773 98.292 53.073 97.9343 53.6295C97.6163 54.186 97.3182 54.5437 97.0399 54.7027C96.8014 54.9014 96.5828 55.0207 96.384 55.0604C96.225 55.1399 96.0859 55.2195 95.9667 55.299C95.8474 55.3785 95.748 55.6368 95.6685 56.0741C95.5095 56.9883 94.5555 57.6641 92.8066 58.1013C89.9843 58.8168 87.4403 58.6975 85.1746 57.7436C84.4194 57.4256 83.8231 56.9883 83.3859 56.4318C82.4716 54.6033 84.0417 48.3825 88.0962 37.7693C89.5272 34.0328 90.4613 31.8069 90.8986 31.0914C91.8923 29.5809 92.5283 28.7262 92.8066 28.5275C93.1246 28.3287 93.5419 28.3685 94.0587 28.6467Z" fill="white"/>
<path d="M55.6934 28.2889C56.8063 27.2157 58.0386 26.5995 59.3901 26.4405C60.7813 26.2418 61.9937 26.3809 63.0272 26.8579C64.1004 27.3349 64.8755 28.11 65.3525 29.1833C65.8693 30.2168 65.8097 31.4093 65.1737 32.7607C63.8222 34.7482 62.7489 36.8947 61.9539 39.2002C61.1589 41.5057 60.4236 43.831 59.7478 46.1763C63.4048 43.8708 66.4655 40.4324 68.93 35.8612C69.6455 34.5097 70.4206 33.1384 71.2554 31.7471L72.1497 30.0776L73.9385 27.2157C74.177 26.4604 74.5944 25.9834 75.1906 25.7847C75.7868 25.5462 76.4228 25.4269 77.0986 25.4269C77.8141 25.4269 78.5296 25.4468 79.2451 25.4865C79.9606 25.4865 80.6164 25.2878 81.2127 24.8903C81.8089 24.4928 82.5046 24.3537 83.2995 24.4729C84.1343 24.5524 84.8697 24.8108 85.5057 25.248C86.1814 25.6853 86.6783 26.2219 86.9963 26.8579C87.354 27.4542 87.3938 28.0504 87.1155 28.6466C85.446 32.2241 83.1604 38.8822 80.2587 48.6209C79.5829 50.8071 78.9469 52.6356 78.3507 54.1063C77.357 55.3386 76.1048 56.1733 74.5944 56.6106C73.0839 57.0478 71.6529 57.1671 70.3014 56.9683C68.9896 56.8093 67.9363 56.3522 67.1413 55.597C66.3463 54.8815 66.1674 53.9672 66.6047 52.8542C65.4917 53.7685 64.3389 54.6032 63.1464 55.3585C61.9539 56.1137 60.5031 56.6106 58.7938 56.8491C57.1243 57.0876 55.5145 57.0081 53.9642 56.6106C52.414 56.2528 51.0824 55.5373 49.9694 54.4641C48.8961 53.3909 48.3198 51.9599 48.2403 50.1711C48.0018 43.8907 50.4861 36.5966 55.6934 28.2889Z" fill="white"/>
<path d="M42.5434 27.156C44.0539 26.6393 46.3593 26.2816 49.4598 26.0828C50.1753 26.4803 50.4536 27.2952 50.2946 28.5274C50.1753 29.7597 49.7182 30.6938 48.9232 31.3298C47.9692 32.7608 46.9556 33.7346 45.8823 34.2514C45.2861 34.5296 44.5507 34.788 43.6762 35.0265C42.8415 35.2252 41.808 35.5035 40.5758 35.8612C39.7808 38.0872 38.8864 41.1082 37.8926 44.9242C36.9387 48.7402 36.2629 51.2841 35.8654 52.5561C34.9512 55.4976 34.2953 57.028 33.8978 57.1472C32.9836 58.5782 31.9699 59.4726 30.8569 59.8303C29.7837 60.1881 28.79 60.1881 27.8757 59.8303C26.9615 59.5123 26.246 58.9161 25.7292 58.0416C25.2522 57.2069 25.1529 56.3125 25.4311 55.3585C25.3119 54.3647 25.4907 51.5823 25.9677 47.011C26.4447 42.4398 26.6832 39.8163 26.6832 39.1406C26.5242 38.9816 26.3255 38.8822 26.087 38.8425C25.8485 38.8027 25.6895 38.7033 25.61 38.5443C25.2522 38.4251 24.974 38.2065 24.7752 37.8885C24.4175 37.332 24.0399 36.9345 23.6424 36.696C22.9269 36.7755 22.3505 36.5767 21.9132 36.0997C21.4363 35.583 21.1978 34.9867 21.1978 34.311C21.1978 33.6353 21.4363 32.9396 21.9132 32.2241C22.3902 31.5086 23.2051 30.9521 24.3579 30.5546L30.4396 28.6467C30.9166 25.4269 32.4271 21.77 34.971 17.6757C35.5673 16.682 36.2033 15.6286 36.879 14.5156C37.5945 13.3629 38.5684 12.3095 39.8006 11.3555C41.0329 10.3618 42.3049 9.60654 43.6166 9.08979C44.9681 8.53329 46.3196 8.19542 47.6711 8.07617C49.0623 7.95692 50.3343 7.9768 51.4871 8.1358C53.9118 8.45379 55.5217 9.26866 56.3167 10.5804C57.2706 12.2499 57.688 13.7604 57.5688 15.1119C57.4893 16.4236 56.9526 17.4174 55.9589 18.0931C54.3689 19.1266 53.0174 19.2856 51.9044 18.5701C51.4672 18.3316 51.1492 17.9341 50.9504 17.3776C50.7517 16.8211 50.3741 16.6224 49.8176 16.7814C49.2611 16.9404 48.6251 17.318 47.9096 17.9142C47.1941 18.4707 46.4587 19.1862 45.7035 20.0607C44.988 20.9352 44.352 21.8296 43.7955 22.7438C42.4042 24.8506 41.9869 26.3213 42.5434 27.156Z" fill="white"/>
<path d="M20.5805 56.7297C20.1036 57.6837 19.3881 58.5185 18.4341 59.234C17.5198 59.9892 16.5857 60.506 15.6317 60.7842C14.7175 61.1022 14.1013 61.2612 13.7833 61.2612C13.4653 61.2612 12.6505 61.1619 11.3387 60.9631H11.2791C11.2394 60.9631 11.1797 60.9234 11.1002 60.8439C9.03325 59.8899 7.99976 58.598 7.99976 56.9683C7.99976 55.5373 8.73513 54.1063 10.2059 52.6753C12.1934 50.7673 14.3398 49.8928 16.6453 50.0518C16.9236 50.0915 17.5794 50.2505 18.6129 50.5288C18.7322 50.648 18.8117 50.7077 18.8514 50.7077C21.1172 52.4567 21.6935 54.464 20.5805 56.7297Z" fill="white"/>
<path d="M105.468 19.2747C109.939 17.8919 114.611 17.1655 118.988 18.0687L118.996 18.0706C122.02 18.6976 124.984 20.1504 127.254 22.7904C129.341 25.2176 130.352 28.0791 130.739 30.848L130.809 31.4007L130.811 31.4232L130.813 31.4466L130.855 31.8949C131.244 36.5421 130.116 41.5538 128.279 46.5511L128.163 46.8685L128.02 47.1742C127.5 48.2868 127.119 49.1404 126.857 49.7591C126.593 50.4381 126.344 51.0693 126.111 51.6517L126.031 51.8529L125.939 52.0492C125.186 53.6712 124.158 55.3274 123.002 56.9661C121.486 59.5378 119.28 61.4046 116.747 62.6146L116.748 62.6165C116.727 62.6269 116.705 62.6366 116.684 62.6468C116.677 62.6499 116.671 62.6535 116.664 62.6566L116.663 62.6556C114.55 63.6685 112.266 64.3204 109.851 64.473C107.489 64.6614 104.755 64.343 102.193 62.8392V62.8411C102.112 62.7949 102.032 62.7467 101.951 62.6976V62.6966C101.708 62.5487 101.466 62.3873 101.228 62.2122C100.663 62.8439 100.056 63.3709 99.458 63.7943C97.854 64.9304 96.1177 65.5188 94.7461 65.8617C90.6974 66.8834 86.4843 66.863 82.46 65.2757L82.0703 65.1165C80.3762 64.4032 78.7167 63.3042 77.3623 61.7015L77.0957 61.3743L76.5938 60.7357L76.2305 60.0091C75.6128 58.7737 75.3265 57.5171 75.207 56.4046C76.4464 55.9331 77.4946 55.1681 78.3506 54.1068C78.9468 52.6361 79.5831 50.8075 80.2588 48.6214C83.1605 38.8829 85.4458 32.2243 87.1152 28.6468C87.3935 28.0506 87.3538 27.454 86.9961 26.8577C86.6781 26.2219 86.1814 25.6855 85.5059 25.2484C85.4355 25.2 85.3638 25.1537 85.291 25.1097C85.4324 24.91 85.5702 24.72 85.7031 24.5413C85.9264 24.2413 86.1948 23.8953 86.4893 23.556C86.6824 23.3334 87.2815 22.6428 88.1562 22.0179L88.3574 21.8743L88.5664 21.7435C90.2877 20.6677 91.989 20.3487 93.4854 20.3997C94.6783 20.0712 95.9701 19.8424 97.3086 19.8275C98.6517 19.8125 100.206 20.0247 101.733 20.6566C102.945 20.1295 104.188 19.678 105.427 19.2874L105.447 19.2816L105.468 19.2747ZM117.372 25.9036C114.868 25.3869 111.688 25.7249 107.832 26.9173C104.175 28.07 101.611 29.5012 100.141 31.2103V30.9124C100.141 29.9187 99.9018 29.1437 99.4248 28.5872C98.5106 27.5537 96.7218 27.5736 94.0586 28.6468L93.8691 28.554C93.4388 28.3628 93.0849 28.3538 92.8066 28.5277C92.5284 28.7264 91.8921 29.5807 90.8984 31.0911C90.4612 31.8066 89.5266 34.0325 88.0957 37.7689C84.0412 48.3821 82.4715 54.6035 83.3857 56.432C83.823 56.9884 84.4196 57.4255 85.1748 57.7435C87.4405 58.6974 89.9845 58.8164 92.8066 58.1009C94.4462 57.691 95.3867 57.0716 95.6289 56.2425L95.6689 56.0745C95.7484 55.6373 95.8475 55.3787 95.9668 55.2992C96.0263 55.2595 96.0907 55.2197 96.1602 55.18L96.3838 55.0609C96.5327 55.0311 96.693 54.9563 96.8643 54.8372L97.04 54.7025C97.3182 54.5434 97.6167 54.1856 97.9346 53.6292C98.2923 53.0728 98.6898 52.3769 99.127 51.5423C99.6039 50.7077 100.101 49.8135 100.617 48.8597C101.174 47.866 101.731 46.872 102.287 45.8783C104.274 42.2615 105.625 40.1941 106.341 39.6771C106.659 39.0411 107.196 38.4851 107.951 38.0081C108.826 37.4914 109.442 37.4311 109.8 37.8284C110.237 38.3452 110.157 39.6176 109.561 41.6449C108.925 43.0758 108.309 44.8052 107.713 46.8324C107.117 48.8595 106.361 51.1053 105.447 53.5697C105.09 54.6427 105.328 55.4178 106.162 55.8949C106.997 56.4116 108.05 56.6107 109.322 56.4915C110.634 56.412 111.946 56.0543 113.258 55.4183C114.525 54.8221 115.477 53.9811 116.115 52.8958L116.239 52.6751C117.213 51.3187 117.958 50.1294 118.476 49.1077L118.684 48.681C118.922 48.0848 119.181 47.4287 119.459 46.7132C119.777 45.958 120.214 44.9838 120.771 43.7913C122.48 39.1406 123.175 35.3045 122.857 32.2835C122.46 28.7063 120.631 26.5794 117.372 25.9036Z" fill="#67C7FF"/>
<path d="M78.1817 17.4396C80.16 16.5131 82.2567 16.2786 84.2139 16.5256C86.1608 16.7338 88.0939 17.3699 89.8506 18.5314H89.8516C91.4808 19.5856 92.9583 21.0507 93.9922 22.9758C94.8886 24.5617 95.3559 26.3635 95.292 28.2072C94.9043 28.3262 94.4928 28.4717 94.0586 28.6467C93.5419 28.3684 93.1247 28.3288 92.8067 28.5275C92.5284 28.7263 91.8922 29.5806 90.8985 31.091C90.4612 31.8065 89.5267 34.0324 88.0957 37.7687C84.0412 48.3819 82.4715 54.6033 83.3858 56.4318C83.823 56.9883 84.4196 57.4253 85.1748 57.7433C85.2697 57.7833 85.366 57.8196 85.4619 57.8566L85.3203 58.2082L84.5781 59.1281C82.5621 61.628 79.9166 63.3984 76.8194 64.2951C74.4365 64.9849 71.9127 65.2558 69.3389 64.9093V64.9103C69.2998 64.9056 69.2608 64.8988 69.2217 64.8937C69.1938 64.8898 69.1656 64.8871 69.1377 64.883V64.882C67.6417 64.681 66.1174 64.2542 64.668 63.5256C63.1181 64.1498 61.5095 64.548 59.8994 64.7726L59.8985 64.7717C57.3171 65.1372 54.7187 65.0329 52.1651 64.4045V64.4054C52.1425 64.4002 52.1202 64.3941 52.0977 64.3888C52.0577 64.3789 52.0175 64.3698 51.9776 64.3595V64.3586C50.6433 64.035 49.3692 63.5592 48.1709 62.9318L46.2451 64.1467L46.8223 62.1408C46.1271 61.6862 45.4615 61.1774 44.832 60.6105L44.416 60.2228L44.3125 60.1213C41.7486 57.5573 40.5532 54.3601 40.2891 51.1652L40.2481 50.5265L40.2471 50.5002L40.2461 50.4748C40.056 45.4687 41.134 40.3382 43.1865 35.1467C43.3568 35.1039 43.5205 35.0638 43.6768 35.0265C44.5511 34.7881 45.2867 34.5294 45.8828 34.2511C46.9559 33.7344 47.969 32.7601 48.9229 31.3293C49.7178 30.6933 50.1757 29.7597 50.2949 28.5275C50.4539 27.2954 50.1753 26.4807 49.46 26.0832C48.7995 26.1255 48.1753 26.1768 47.5869 26.2336C48.0146 25.5031 48.4567 24.7714 48.9151 24.0402L49.4356 23.2101L50.1406 22.5304C52.2896 20.4583 55.0239 18.9497 58.2588 18.5226V18.5207C60.785 18.1598 63.5773 18.3308 66.2754 19.548L66.2764 19.547C66.292 19.554 66.3076 19.5615 66.3233 19.5685C66.3421 19.5771 66.3611 19.5852 66.3799 19.5939L66.3789 19.5949C67.156 19.9482 67.8827 20.3721 68.5567 20.8576C69.5188 19.7984 70.7765 18.8799 72.3858 18.2922C73.9244 17.7011 75.5161 17.4269 77.0986 17.4269C77.4597 17.4269 77.8207 17.4312 78.1817 17.4396ZM83.2998 24.4728C82.5049 24.3536 81.8091 24.4924 81.2129 24.8898C80.6167 25.2873 79.9606 25.4865 79.2451 25.4865L78.1719 25.4416C77.8142 25.4316 77.4564 25.4269 77.0986 25.4269C76.4229 25.4269 75.7867 25.5459 75.1904 25.7843C74.5943 25.9831 74.177 26.4608 73.9385 27.216L72.1494 30.0773L71.2559 31.7472C70.4211 33.1385 69.6452 34.51 68.9297 35.8615C66.4653 40.4324 63.4048 43.8705 59.7481 46.176C60.4238 43.8309 61.1592 41.5057 61.9541 39.2004C62.7491 36.8949 63.8224 34.7484 65.1738 32.7609C65.8098 31.4094 65.8693 30.2163 65.3526 29.1828C64.9053 28.1766 64.196 27.4324 63.2246 26.9504L63.0274 26.8576C61.994 26.3807 60.7817 26.2419 59.3906 26.4406C58.0391 26.5996 56.8064 27.216 55.6934 28.2892C50.4863 36.5968 48.0018 43.8907 48.2402 50.1711C48.3197 51.9598 48.8965 53.3908 49.9697 54.464C51.0826 55.5371 52.4139 56.2527 53.9639 56.6105C55.5141 57.008 57.1245 57.0873 58.794 56.8488C60.5031 56.6103 61.954 56.1138 63.1465 55.3586C64.339 54.6033 65.4915 53.7679 66.6045 52.8537C66.1673 53.9667 66.3466 54.8814 67.1416 55.5968C67.9366 56.352 68.9901 56.8089 70.3018 56.9679C71.4844 57.1418 72.7279 57.073 74.0322 56.7599L74.5947 56.6105C76.0108 56.2006 77.1993 55.4408 78.1611 54.3322L78.3506 54.1066C78.7978 53.0036 79.2679 51.699 79.7598 50.1935L80.2588 48.6213C82.9791 39.4915 85.1576 33.0686 86.7949 29.3537L87.1152 28.6467C87.3935 28.0504 87.3539 27.4538 86.9961 26.8576C86.6781 26.2218 86.1814 25.6854 85.5059 25.2482C84.8699 24.811 84.1345 24.5523 83.2998 24.4728Z" fill="#67C7FF"/>
<path d="M46.9883 0.105652C48.8397 -0.0530201 50.6993 -0.04296 52.5264 0.204284L52.5273 0.203308C55.9304 0.649606 60.5101 2.06461 63.1582 6.43378L63.2119 6.52167L63.2627 6.61151L63.5283 7.091C64.8383 9.52494 65.8297 12.5091 65.5381 15.8146C65.2716 19.2548 63.6432 22.5416 60.457 24.7082L60.3887 24.7551L60.3193 24.801C59.6885 25.211 58.9596 25.6131 58.1562 25.9611C58.1983 26.2085 58.2315 26.4524 58.2568 26.6916C57.3419 26.992 56.487 27.5239 55.6934 28.2892C52.7524 32.9814 50.6804 37.3502 49.4766 41.3957C49.4351 41.4162 49.3944 41.439 49.3525 41.4592L49.3096 41.4807L49.2656 41.5012C48.4892 41.8635 47.6819 42.1636 46.876 42.4201C46.4922 43.7328 46.0784 45.2369 45.6348 46.9406C44.7012 50.6729 43.9786 53.4087 43.5039 54.9299L43.5049 54.9308C43.0221 56.4841 42.533 57.9137 42.041 59.0617C41.8065 59.6088 41.46 60.3585 40.9873 61.0988C40.7806 61.4225 40.4482 61.9042 39.9775 62.4182C38.5114 64.4197 36.39 66.429 33.3857 67.4182L33.3867 67.4201C33.3696 67.4258 33.3521 67.4301 33.335 67.4357C33.3249 67.439 33.3148 67.4432 33.3047 67.4465L33.3037 67.4455C30.844 68.2482 28.0407 68.3971 25.248 67.3849V67.3859C25.208 67.372 25.1687 67.3553 25.1289 67.341C25.0733 67.3202 25.0165 67.3022 24.9609 67.2805V67.2785C22.4755 66.3439 20.4921 64.6785 19.1182 62.5578L18.8418 62.1115L18.8125 62.0607L18.7832 62.0109C18.3603 61.2708 18.0304 60.5048 17.7871 59.7248C18.0036 59.574 18.2202 59.4106 18.4346 59.2336C19.3883 58.5182 20.1041 57.6835 20.5811 56.7297C21.6939 54.464 21.1172 52.4561 18.8516 50.7072C18.8118 50.7072 18.7325 50.6478 18.6133 50.5285C18.232 50.4258 17.9015 50.3409 17.623 50.2707C17.722 49.076 17.8513 47.7092 18.0107 46.1808C18.1203 45.1306 18.2157 44.1898 18.2988 43.3576C17.4848 42.8794 16.7136 42.2665 16.0156 41.5051V41.5041C14.3586 39.6995 13.3322 37.3878 13.21 34.8283L13.1982 34.3107L13.209 33.8215C13.3168 31.4006 14.2113 29.3547 15.2568 27.7863C17.0371 25.1159 19.6152 23.7275 21.75 22.9914L21.8564 22.9553L21.9629 22.9211L23.8125 22.34C24.8474 19.3589 26.3532 16.3865 28.1758 13.4533C28.7614 12.4778 29.3829 11.4474 30.041 10.3635L30.082 10.2971C31.369 8.22367 33.0279 6.48146 34.9033 5.02948C36.657 3.63303 38.5821 2.47491 40.6846 1.64667V1.64764C42.6918 0.833197 44.7921 0.298619 46.9678 0.106628H46.9775L46.9883 0.105652ZM51.4873 8.13593C50.3346 7.97693 49.0621 7.95711 47.6709 8.07635C46.3195 8.19563 44.9676 8.53357 43.6162 9.09003L43.127 9.2951C41.9878 9.79943 40.879 10.4861 39.8008 11.3557C38.5686 12.3096 37.5944 13.3631 36.8789 14.5158C36.2032 15.6287 35.5669 16.6823 34.9707 17.676C32.4269 21.77 30.9164 25.427 30.4395 28.6467L24.3584 30.5549C23.2057 30.9524 22.3901 31.5084 21.9131 32.2238C21.4361 32.9392 21.1983 33.635 21.1982 34.3107C21.1982 34.9865 21.4361 35.5831 21.9131 36.0998C22.3503 36.5768 22.9271 36.775 23.6426 36.6955C24.0401 36.934 24.4176 37.3324 24.7754 37.8889C24.9741 38.2067 25.2527 38.4249 25.6104 38.5441C25.6898 38.7031 25.8485 38.8022 26.0869 38.842C26.3254 38.8817 26.5246 38.9818 26.6836 39.1408L26.6719 39.4855C26.6197 40.5031 26.3851 43.0115 25.9678 47.0109C25.4908 51.5821 25.3124 54.3648 25.4316 55.3586L25.3838 55.5363C25.1671 56.4238 25.2823 57.2586 25.7295 58.0412C26.2462 58.9157 26.9617 59.5123 27.876 59.8303C28.7902 60.1879 29.7842 60.188 30.8574 59.8303C31.9701 59.4725 32.9834 58.5782 33.8975 57.1476C34.295 57.0284 34.951 55.4973 35.8652 52.5558C36.2627 51.2838 36.9386 48.7399 37.8926 44.924C38.8863 41.1082 39.7812 38.0875 40.5762 35.8615C41.8083 35.5038 42.8421 35.2253 43.6768 35.0266C44.5511 34.7881 45.2867 34.5294 45.8828 34.2512C46.9559 33.7344 47.969 32.7601 48.9229 31.3293C49.6681 30.7331 50.1171 29.8753 50.2686 28.7551L50.2949 28.5275C50.4539 27.2954 50.1753 26.4807 49.46 26.0832C46.3595 26.2819 44.0535 26.6397 42.543 27.1564C41.9865 26.3217 42.4047 24.8501 43.7959 22.7433C44.3523 21.8293 44.9878 20.935 45.7031 20.0607C46.4583 19.1864 47.1938 18.4707 47.9092 17.9142C48.6246 17.3181 49.261 16.9405 49.8174 16.7814C50.3737 16.6225 50.7514 16.821 50.9502 17.3771C51.1489 17.9336 51.467 18.332 51.9043 18.5705C52.9478 19.2413 54.2013 19.1431 55.6641 18.2766L55.959 18.093C56.9527 17.4172 57.4889 16.4232 57.5684 15.1115C57.6875 13.7601 57.2703 12.2496 56.3164 10.5803C55.5711 9.35069 54.11 8.55772 51.9326 8.20135L51.4873 8.13593Z" fill="#67C7FF"/>
<path d="M16.7305 42.0452L17.1963 42.0706L17.4873 42.0911L17.7764 42.1321C18.5243 42.239 19.5099 42.4896 20.3281 42.7073H21.5801L22.2461 43.222L22.7578 43.3597L23.8984 44.5013C24.6221 45.0734 25.3477 45.7401 26.0186 46.511C26.0015 46.675 25.9854 46.8417 25.9678 47.011C25.4908 51.5823 25.3124 54.3649 25.4316 55.3587C25.1534 56.3126 25.2526 57.2066 25.7295 58.0413C26.2462 58.9158 26.9617 59.5124 27.876 59.8304C27.8999 59.8397 27.9242 59.8479 27.9482 59.8567C27.8871 59.9916 27.8254 60.1255 27.7607 60.2571L27.749 60.2825L27.7363 60.3079C26.6713 62.438 25.1481 64.1638 23.3828 65.5188C21.8815 66.7337 20.1293 67.7612 18.1191 68.387C17.5907 68.5683 17.0334 68.746 16.4834 68.888C16.0363 69.0034 14.9956 69.261 13.7832 69.261C12.8232 69.261 11.496 69.0756 10.459 68.9202C8.75585 68.7459 7.5276 68.0706 6.97852 67.7259C3.59098 65.94 0 62.5187 0 56.9681C0.000113916 52.5857 2.2869 49.2185 4.62695 46.9417L4.66602 46.9046C7.83811 43.8594 11.9419 41.8547 16.7305 42.0452ZM16.6455 50.0521C14.3401 49.8931 12.1935 50.7673 10.2061 52.6751C8.73543 54.106 8.00011 55.5372 8 56.9681C8 58.5978 9.0336 59.89 11.1006 60.844C11.1603 60.9037 11.2088 60.9405 11.2461 60.9554L11.2793 60.9632H11.3389C12.6503 61.1619 13.4651 61.261 13.7832 61.261C14.0217 61.261 14.4281 61.1723 15.002 60.9935L15.6318 60.7845C16.4667 60.541 17.2864 60.1149 18.0908 59.5062L18.4346 59.2337C19.3883 58.5183 20.1041 57.6836 20.5811 56.7298C21.6939 54.4642 21.1172 52.4562 18.8516 50.7073C18.8118 50.7073 18.7325 50.6479 18.6133 50.5286C17.5799 50.2504 16.9238 50.0918 16.6455 50.0521Z" fill="#67C7FF"/>
</svg>
