<svg width="40" height="40" viewBox="0 0 40 40" fill="none" xmlns="http://www.w3.org/2000/svg">
<path fill-rule="evenodd" clip-rule="evenodd" d="M12.5438 10.6981C12.998 10.3283 13.6481 10.3235 14.1077 10.6865L23.1405 17.8191C25.0557 19.3315 25.0655 22.2193 23.1605 23.7445C21.2668 25.2606 18.4392 24.655 17.3503 22.4806L12.2154 12.2272C11.9531 11.7035 12.0897 11.0679 12.5438 10.6981Z" fill="#41B9FF"/>
<path fill-rule="evenodd" clip-rule="evenodd" d="M18.3337 3.33415C18.3337 2.41368 19.0798 1.66748 20.0003 1.66748C30.1255 1.66748 38.3337 9.8756 38.3337 20.0008C38.3337 30.126 30.1255 38.3341 20.0003 38.3341C9.87511 38.3341 1.66699 30.126 1.66699 20.0008C1.66699 14.8726 3.77473 10.2337 7.16693 6.90826C7.82423 6.26388 8.87946 6.27438 9.52383 6.93168C10.1682 7.589 10.1577 8.64421 9.50039 9.2886C6.72138 12.0129 5.00033 15.8044 5.00033 20.0008C5.00033 28.2851 11.7161 35.0008 20.0003 35.0008C28.2847 35.0008 35.0003 28.2851 35.0003 20.0008C35.0003 12.2799 29.167 5.92143 21.667 5.09236V7.50081C21.667 8.42128 20.9208 9.16748 20.0003 9.16748C19.0798 9.16748 18.3337 8.42128 18.3337 7.50081V3.33415Z" fill="#41B9FF"/>
</svg>
